<svg width="161" height="215" viewBox="0 0 161 215" fill="none" xmlns="http://www.w3.org/2000/svg">
<path d="M118.173 30.0441C118.173 25.4782 119.633 21.032 122.34 17.3553C134.591 0.718527 160.972 9.38347 160.972 30.0441V192.891C160.972 204.709 151.391 214.29 139.572 214.29C127.753 214.29 118.173 204.709 118.173 192.891V30.0441Z" fill="#66E0FF"/>
<path d="M129.574 7.61183L5.48818 177.233C-5.76224 192.612 5.23897 214.253 24.2937 214.226C32.1615 214.215 39.4904 210.227 43.7732 203.627L158.172 27.3283C159.999 24.5123 160.972 21.2273 160.972 17.8705C160.972 1.06786 139.494 -5.94943 129.574 7.61183Z" fill="#00CCFF"/>
</svg>
