<svg width="340" height="238" viewBox="0 0 340 238" fill="none" xmlns="http://www.w3.org/2000/svg">
<path d="M190 119.458C190 182.671 147.467 233.916 95 233.916C42.5329 233.916 0 182.671 0 119.458C0 56.2445 42.5329 5 95 5C147.467 5 190 56.2445 190 119.458Z" fill="#6966FF"/>
<path d="M0 29.9375C0 13.5415 13.2915 0.25 29.6875 0.25C46.0835 0.25 59.375 13.5415 59.375 29.9375V208.062C59.375 224.458 46.0835 237.75 29.6875 237.75C13.2915 237.75 0 224.458 0 208.062V29.9375Z" fill="#EB8D00"/>
<path d="M340 119.458C340 182.671 297.467 233.916 245 233.916C192.533 233.916 150 182.671 150 119.458C150 56.2445 192.533 5 245 5C297.467 5 340 56.2445 340 119.458Z" fill="#6966FF"/>
<path d="M150 29.9375C150 13.5415 163.292 0.25 179.688 0.25C196.083 0.25 209.375 13.5415 209.375 29.9375V208.062C209.375 224.458 196.083 237.75 179.688 237.75C163.292 237.75 150 224.458 150 208.062V29.9375Z" fill="#EB8D00"/>
</svg>
