<svg width="70" height="16" viewBox="0 0 70 16" fill="none" xmlns="http://www.w3.org/2000/svg">
<path d="M0.248 12V0.719999H7.848V2.336H2.232V5.456H7.48V7.088H2.232V10.368H7.848V12H0.248ZM9.60363 12V5.936C9.60363 5.60533 9.59296 5.26933 9.57162 4.928C9.55029 4.58667 9.51829 4.25067 9.47563 3.92H11.4116L11.5716 5.52H11.3796C11.6356 4.95467 12.0143 4.52267 12.5156 4.224C13.017 3.91467 13.5983 3.76 14.2596 3.76C15.209 3.76 15.9236 4.02667 16.4036 4.56C16.8836 5.09333 17.1236 5.92533 17.1236 7.056V12H15.1236V7.152C15.1236 6.50133 14.9956 6.03733 14.7396 5.76C14.4943 5.472 14.121 5.328 13.6196 5.328C13.001 5.328 12.5103 5.52 12.1476 5.904C11.785 6.288 11.6036 6.8 11.6036 7.44V12H9.60363ZM22.9883 15.584C22.2416 15.584 21.5643 15.504 20.9563 15.344C20.3589 15.184 19.8256 14.9387 19.3563 14.608L19.7883 13.168C20.0976 13.3707 20.4176 13.536 20.7483 13.664C21.0789 13.792 21.4203 13.888 21.7723 13.952C22.1243 14.016 22.4816 14.048 22.8443 14.048C23.5909 14.048 24.1456 13.8613 24.5083 13.488C24.8816 13.1253 25.0683 12.6027 25.0683 11.92V9.984H25.2283C25.0576 10.5387 24.7109 10.9813 24.1883 11.312C23.6763 11.6427 23.0843 11.808 22.4123 11.808C21.6869 11.808 21.0523 11.648 20.5082 11.328C19.9749 10.9973 19.5589 10.528 19.2603 9.92C18.9616 9.312 18.8123 8.59733 18.8123 7.776C18.8123 6.95467 18.9616 6.24533 19.2603 5.648C19.5589 5.04 19.9749 4.576 20.5082 4.256C21.0523 3.92533 21.6869 3.76 22.4123 3.76C23.0949 3.76 23.6869 3.92533 24.1883 4.256C24.7003 4.576 25.0416 5.01333 25.2123 5.568L25.0683 5.472L25.2283 3.92H27.1643C27.1216 4.25067 27.0896 4.58667 27.0683 4.928C27.0469 5.26933 27.0363 5.60533 27.0363 5.936V11.68C27.0363 12.9493 26.6896 13.9147 25.9963 14.576C25.3136 15.248 24.3109 15.584 22.9883 15.584ZM22.9563 10.272C23.5963 10.272 24.1029 10.0587 24.4763 9.632C24.8603 9.19467 25.0523 8.576 25.0523 7.776C25.0523 6.976 24.8603 6.36267 24.4763 5.936C24.1029 5.50933 23.5963 5.296 22.9563 5.296C22.3056 5.296 21.7883 5.50933 21.4043 5.936C21.0203 6.36267 20.8283 6.976 20.8283 7.776C20.8283 8.576 21.0203 9.19467 21.4043 9.632C21.7883 10.0587 22.3056 10.272 22.9563 10.272ZM29.3574 12V0.719999H34.3654C35.6027 0.719999 36.5467 1.01867 37.1974 1.616C37.848 2.21333 38.1734 3.03467 38.1734 4.08C38.1734 5.11467 37.848 5.936 37.1974 6.544C36.5467 7.152 35.6027 7.456 34.3654 7.456H31.4214V12H29.3574ZM31.4214 5.824H34.1254C34.808 5.824 35.32 5.67467 35.6614 5.376C36.0027 5.06667 36.1734 4.63467 36.1734 4.08C36.1734 3.52533 36.0027 3.09867 35.6614 2.8C35.32 2.49067 34.808 2.336 34.1254 2.336H31.4214V5.824ZM43.111 12.16C42.279 12.16 41.559 11.9893 40.951 11.648C40.343 11.3067 39.8683 10.8213 39.527 10.192C39.1963 9.56267 39.031 8.816 39.031 7.952C39.031 7.088 39.1963 6.34667 39.527 5.728C39.8683 5.09867 40.343 4.61333 40.951 4.272C41.559 3.93067 42.279 3.76 43.111 3.76C43.943 3.76 44.663 3.93067 45.271 4.272C45.8897 4.61333 46.3643 5.09867 46.695 5.728C47.0363 6.34667 47.207 7.088 47.207 7.952C47.207 8.816 47.0363 9.56267 46.695 10.192C46.3643 10.8213 45.8897 11.3067 45.271 11.648C44.663 11.9893 43.943 12.16 43.111 12.16ZM43.111 10.624C43.7403 10.624 44.2417 10.4053 44.615 9.968C44.9883 9.52 45.175 8.848 45.175 7.952C45.175 7.056 44.9883 6.38933 44.615 5.952C44.2417 5.51467 43.7403 5.296 43.111 5.296C42.4817 5.296 41.9803 5.51467 41.607 5.952C41.2337 6.38933 41.047 7.056 41.047 7.952C41.047 8.848 41.2337 9.52 41.607 9.968C41.9803 10.4053 42.4817 10.624 43.111 10.624ZM51.8118 12.16C51.1184 12.16 50.4784 12.08 49.8918 11.92C49.3158 11.7493 48.8304 11.5147 48.4358 11.216L48.9958 9.872C49.4011 10.1493 49.8491 10.3627 50.3398 10.512C50.8304 10.6613 51.3264 10.736 51.8278 10.736C52.3611 10.736 52.7558 10.6453 53.0118 10.464C53.2784 10.2827 53.4118 10.0373 53.4118 9.728C53.4118 9.48267 53.3264 9.29067 53.1558 9.152C52.9958 9.00267 52.7344 8.89067 52.3718 8.816L50.7718 8.512C50.0891 8.36267 49.5664 8.10667 49.2038 7.744C48.8518 7.38133 48.6758 6.90667 48.6758 6.32C48.6758 5.81867 48.8091 5.376 49.0758 4.992C49.3531 4.608 49.7424 4.30933 50.2438 4.096C50.7558 3.872 51.3531 3.76 52.0358 3.76C52.6331 3.76 53.1931 3.84 53.7158 4C54.2491 4.16 54.6971 4.4 55.0598 4.72L54.4838 6.016C54.1531 5.74933 53.7744 5.54133 53.3478 5.392C52.9211 5.24267 52.5051 5.168 52.0998 5.168C51.5451 5.168 51.1398 5.26933 50.8838 5.472C50.6278 5.664 50.4998 5.91467 50.4998 6.224C50.4998 6.45867 50.5744 6.656 50.7238 6.816C50.8838 6.96533 51.1291 7.07733 51.4598 7.152L53.0598 7.456C53.7744 7.59467 54.3131 7.84 54.6758 8.192C55.0491 8.53333 55.2358 9.00267 55.2358 9.6C55.2358 10.1333 55.0918 10.592 54.8038 10.976C54.5158 11.36 54.1158 11.6533 53.6038 11.856C53.0918 12.0587 52.4944 12.16 51.8118 12.16ZM60.3253 12.16C59.3653 12.16 58.6399 11.9093 58.1493 11.408C57.6586 10.9067 57.4133 10.1547 57.4133 9.152V5.424H55.8613V3.92H57.4133V1.856L59.4133 1.344V3.92H61.5733V5.424H59.4133V9.024C59.4133 9.57867 59.5199 9.968 59.7333 10.192C59.9466 10.416 60.2399 10.528 60.6133 10.528C60.8159 10.528 60.9866 10.512 61.1253 10.48C61.2746 10.448 61.4186 10.4053 61.5573 10.352V11.936C61.3759 12.0107 61.1733 12.064 60.9493 12.096C60.7359 12.1387 60.5279 12.16 60.3253 12.16ZM65.8118 12.16C65.1184 12.16 64.4784 12.08 63.8918 11.92C63.3158 11.7493 62.8304 11.5147 62.4358 11.216L62.9958 9.872C63.4011 10.1493 63.8491 10.3627 64.3398 10.512C64.8304 10.6613 65.3264 10.736 65.8278 10.736C66.3611 10.736 66.7558 10.6453 67.0118 10.464C67.2784 10.2827 67.4118 10.0373 67.4118 9.728C67.4118 9.48267 67.3264 9.29067 67.1558 9.152C66.9958 9.00267 66.7344 8.89067 66.3718 8.816L64.7718 8.512C64.0891 8.36267 63.5664 8.10667 63.2038 7.744C62.8518 7.38133 62.6758 6.90667 62.6758 6.32C62.6758 5.81867 62.8091 5.376 63.0758 4.992C63.3531 4.608 63.7424 4.30933 64.2438 4.096C64.7558 3.872 65.3531 3.76 66.0358 3.76C66.6331 3.76 67.1931 3.84 67.7158 4C68.2491 4.16 68.6971 4.4 69.0598 4.72L68.4838 6.016C68.1531 5.74933 67.7744 5.54133 67.3478 5.392C66.9211 5.24267 66.5051 5.168 66.0998 5.168C65.5451 5.168 65.1398 5.26933 64.8838 5.472C64.6278 5.664 64.4998 5.91467 64.4998 6.224C64.4998 6.45867 64.5744 6.656 64.7238 6.816C64.8838 6.96533 65.1291 7.07733 65.4598 7.152L67.0598 7.456C67.7744 7.59467 68.3131 7.84 68.6758 8.192C69.0491 8.53333 69.2358 9.00267 69.2358 9.6C69.2358 10.1333 69.0918 10.592 68.8038 10.976C68.5158 11.36 68.1158 11.6533 67.6038 11.856C67.0918 12.0587 66.4944 12.16 65.8118 12.16Z" fill="#03A300"/>
</svg>
