<svg width="294" height="332" viewBox="0 0 294 332" fill="none" xmlns="http://www.w3.org/2000/svg">
<path d="M-337.398 124.201C-319.884 99.6796 -299.503 87.4187 -276.257 87.4187C-255.876 87.4187 -240.272 94.425 -229.445 108.437C-218.3 122.131 -212.727 141.717 -212.727 167.194V326.268H-253.329V172.927C-253.329 141.08 -263.678 125.157 -284.377 125.157C-293.612 125.157 -303.006 128.66 -312.559 135.666C-322.113 142.672 -330.392 152.226 -337.398 164.328V326.268H-378V0H-337.398V124.201Z" fill="url(#paint0_linear_1_2)"/>
<path d="M-337.398 124.201C-319.884 99.6796 -299.503 87.4187 -276.257 87.4187C-255.876 87.4187 -240.272 94.425 -229.445 108.437C-218.3 122.131 -212.727 141.717 -212.727 167.194V326.268H-253.329V172.927C-253.329 141.08 -263.678 125.157 -284.377 125.157C-293.612 125.157 -303.006 128.66 -312.559 135.666C-322.113 142.672 -330.392 152.226 -337.398 164.328V326.268H-378V0H-337.398V124.201Z" fill="url(#paint1_linear_1_2)" fill-opacity="0.2"/>
<path d="M-107.905 87.4187C-80.5183 87.4187 -60.6155 93.6288 -48.1961 106.049C-35.4583 118.151 -29.0894 137.577 -29.0894 164.328V326.268H-67.7805V289.007C-86.2503 317.669 -107.109 332 -130.355 332C-148.825 332 -163.633 325.631 -174.778 312.892C-185.605 300.153 -191.019 282.797 -191.019 260.823V247.448C-191.019 228.34 -184.491 212.576 -171.435 200.155C-158.378 187.417 -140.864 181.047 -118.891 181.047C-106.79 181.047 -90.3901 183.118 -69.6912 187.258V160.984C-69.6912 147.29 -72.8756 137.418 -79.2445 131.367C-85.295 125.316 -94.8484 122.291 -107.905 122.291C-123.19 122.291 -144.685 124.679 -172.39 129.456V94.5842C-142.456 89.8072 -120.961 87.4187 -107.905 87.4187ZM-108.86 212.576C-122.235 212.576 -132.425 216.079 -139.431 223.085C-146.437 230.091 -149.939 239.964 -149.939 252.702V257.957C-149.939 269.74 -147.233 278.976 -141.819 285.663C-136.406 292.351 -129.559 295.695 -121.279 295.695C-112.681 295.695 -103.924 292.033 -95.0076 284.708C-85.7727 277.065 -77.3339 266.396 -69.6912 252.702V215.919C-81.7921 213.69 -94.8484 212.576 -108.86 212.576Z" fill="url(#paint2_linear_1_2)"/>
<path d="M-107.905 87.4187C-80.5183 87.4187 -60.6155 93.6288 -48.1961 106.049C-35.4583 118.151 -29.0894 137.577 -29.0894 164.328V326.268H-67.7805V289.007C-86.2503 317.669 -107.109 332 -130.355 332C-148.825 332 -163.633 325.631 -174.778 312.892C-185.605 300.153 -191.019 282.797 -191.019 260.823V247.448C-191.019 228.34 -184.491 212.576 -171.435 200.155C-158.378 187.417 -140.864 181.047 -118.891 181.047C-106.79 181.047 -90.3901 183.118 -69.6912 187.258V160.984C-69.6912 147.29 -72.8756 137.418 -79.2445 131.367C-85.295 125.316 -94.8484 122.291 -107.905 122.291C-123.19 122.291 -144.685 124.679 -172.39 129.456V94.5842C-142.456 89.8072 -120.961 87.4187 -107.905 87.4187ZM-108.86 212.576C-122.235 212.576 -132.425 216.079 -139.431 223.085C-146.437 230.091 -149.939 239.964 -149.939 252.702V257.957C-149.939 269.74 -147.233 278.976 -141.819 285.663C-136.406 292.351 -129.559 295.695 -121.279 295.695C-112.681 295.695 -103.924 292.033 -95.0076 284.708C-85.7727 277.065 -77.3339 266.396 -69.6912 252.702V215.919C-81.7921 213.69 -94.8484 212.576 -108.86 212.576Z" fill="url(#paint3_linear_1_2)" fill-opacity="0.2"/>
<path d="M42.6654 124.201C50.945 112.418 60.4983 103.342 71.3255 96.9727C82.1526 90.6034 93.4574 87.4187 105.24 87.4187C124.984 87.4187 140.269 94.425 151.096 108.437C161.923 122.131 167.337 142.195 167.337 168.627V244.104C167.337 273.084 160.49 295.058 146.797 310.026C133.104 324.675 111.927 332 83.2672 332C55.244 332 34.7042 324.835 21.648 310.504C8.59169 296.173 2.06356 274.358 2.06356 245.059V0H42.6654V124.201ZM95.6866 123.724C86.4516 123.724 77.0575 127.227 67.5041 134.233C57.9508 141.239 49.6712 150.793 42.6654 162.895V249.836C42.6654 265.441 46.1683 277.383 53.1741 285.663C60.4983 293.943 70.5294 298.083 83.2672 298.083C112.246 298.083 126.735 281.683 126.735 248.881V174.36C126.735 140.602 116.386 123.724 95.6866 123.724Z" fill="url(#paint4_linear_1_2)"/>
<path d="M42.6654 124.201C50.945 112.418 60.4983 103.342 71.3255 96.9727C82.1526 90.6034 93.4574 87.4187 105.24 87.4187C124.984 87.4187 140.269 94.425 151.096 108.437C161.923 122.131 167.337 142.195 167.337 168.627V244.104C167.337 273.084 160.49 295.058 146.797 310.026C133.104 324.675 111.927 332 83.2672 332C55.244 332 34.7042 324.835 21.648 310.504C8.59169 296.173 2.06356 274.358 2.06356 245.059V0H42.6654V124.201ZM95.6866 123.724C86.4516 123.724 77.0575 127.227 67.5041 134.233C57.9508 141.239 49.6712 150.793 42.6654 162.895V249.836C42.6654 265.441 46.1683 277.383 53.1741 285.663C60.4983 293.943 70.5294 298.083 83.2672 298.083C112.246 298.083 126.735 281.683 126.735 248.881V174.36C126.735 140.602 116.386 123.724 95.6866 123.724Z" fill="url(#paint5_linear_1_2)" fill-opacity="0.2"/>
<path d="M167.195 124.201C175.475 112.418 185.028 103.342 195.855 96.9727C206.682 90.6034 217.987 87.4187 229.77 87.4187C249.513 87.4187 264.799 94.425 275.626 108.437C286.453 122.131 291.866 142.195 291.866 168.627V244.104C291.866 273.084 285.02 295.058 271.327 310.026C257.634 324.675 236.457 332 207.797 332C179.774 332 159.234 324.835 146.178 310.504C133.121 296.173 126.593 274.358 126.593 245.059V0H167.195V124.201ZM220.216 123.724C210.981 123.724 201.587 127.227 192.034 134.233C182.48 141.239 174.201 150.793 167.195 162.895V249.836C167.195 265.441 170.698 277.383 177.704 285.663C185.028 293.943 195.059 298.083 207.797 298.083C236.775 298.083 251.265 281.683 251.265 248.881V174.36C251.265 140.602 240.915 123.724 220.216 123.724Z" fill="url(#paint6_linear_1_2)"/>
<path d="M167.195 124.201C175.475 112.418 185.028 103.342 195.855 96.9727C206.682 90.6034 217.987 87.4187 229.77 87.4187C249.513 87.4187 264.799 94.425 275.626 108.437C286.453 122.131 291.866 142.195 291.866 168.627V244.104C291.866 273.084 285.02 295.058 271.327 310.026C257.634 324.675 236.457 332 207.797 332C179.774 332 159.234 324.835 146.178 310.504C133.121 296.173 126.593 274.358 126.593 245.059V0H167.195V124.201ZM220.216 123.724C210.981 123.724 201.587 127.227 192.034 134.233C182.48 141.239 174.201 150.793 167.195 162.895V249.836C167.195 265.441 170.698 277.383 177.704 285.663C185.028 293.943 195.059 298.083 207.797 298.083C236.775 298.083 251.265 281.683 251.265 248.881V174.36C251.265 140.602 240.915 123.724 220.216 123.724Z" fill="url(#paint7_linear_1_2)" fill-opacity="0.2"/>
<path d="M396.185 87.4187C423.571 87.4187 443.474 93.6288 455.893 106.049C468.631 118.151 475 137.577 475 164.328V326.268H436.309V289.007C417.839 317.669 396.981 332 373.734 332C355.264 332 340.457 325.631 329.311 312.892C318.484 300.153 313.07 282.797 313.07 260.823V247.448C313.07 228.34 319.599 212.576 332.655 200.155C345.711 187.417 363.226 181.047 385.198 181.047C397.299 181.047 413.699 183.118 434.398 187.258V160.984C434.398 147.29 431.214 137.418 424.845 131.367C418.794 125.316 409.241 122.291 396.185 122.291C380.899 122.291 359.404 124.679 331.699 129.456V94.5842C361.633 89.8072 383.128 87.4187 396.185 87.4187ZM395.229 212.576C381.855 212.576 371.664 216.079 364.659 223.085C357.653 230.091 354.15 239.964 354.15 252.702V257.957C354.15 269.74 356.857 278.976 362.27 285.663C367.684 292.351 374.53 295.695 382.81 295.695C391.408 295.695 400.165 292.033 409.082 284.708C418.317 277.065 426.756 266.396 434.398 252.702V215.919C422.297 213.69 409.241 212.576 395.229 212.576Z" fill="url(#paint8_linear_1_2)"/>
<path d="M396.185 87.4187C423.571 87.4187 443.474 93.6288 455.893 106.049C468.631 118.151 475 137.577 475 164.328V326.268H436.309V289.007C417.839 317.669 396.981 332 373.734 332C355.264 332 340.457 325.631 329.311 312.892C318.484 300.153 313.07 282.797 313.07 260.823V247.448C313.07 228.34 319.599 212.576 332.655 200.155C345.711 187.417 363.226 181.047 385.198 181.047C397.299 181.047 413.699 183.118 434.398 187.258V160.984C434.398 147.29 431.214 137.418 424.845 131.367C418.794 125.316 409.241 122.291 396.185 122.291C380.899 122.291 359.404 124.679 331.699 129.456V94.5842C361.633 89.8072 383.128 87.4187 396.185 87.4187ZM395.229 212.576C381.855 212.576 371.664 216.079 364.659 223.085C357.653 230.091 354.15 239.964 354.15 252.702V257.957C354.15 269.74 356.857 278.976 362.27 285.663C367.684 292.351 374.53 295.695 382.81 295.695C391.408 295.695 400.165 292.033 409.082 284.708C418.317 277.065 426.756 266.396 434.398 252.702V215.919C422.297 213.69 409.241 212.576 395.229 212.576Z" fill="url(#paint9_linear_1_2)" fill-opacity="0.2"/>
<defs>
<linearGradient id="paint0_linear_1_2" x1="-411.437" y1="178.729" x2="515.24" y2="178.729" gradientUnits="userSpaceOnUse">
<stop stop-color="#005EB5"/>
<stop offset="1" stop-color="#00C2FF"/>
</linearGradient>
<linearGradient id="paint1_linear_1_2" x1="51.9016" y1="-74.9986" x2="51.9016" y2="440.915" gradientUnits="userSpaceOnUse">
<stop stop-opacity="0"/>
<stop offset="1"/>
</linearGradient>
<linearGradient id="paint2_linear_1_2" x1="-411.437" y1="178.729" x2="515.24" y2="178.729" gradientUnits="userSpaceOnUse">
<stop stop-color="#005EB5"/>
<stop offset="1" stop-color="#00C2FF"/>
</linearGradient>
<linearGradient id="paint3_linear_1_2" x1="51.9016" y1="-74.9986" x2="51.9016" y2="440.915" gradientUnits="userSpaceOnUse">
<stop stop-opacity="0"/>
<stop offset="1"/>
</linearGradient>
<linearGradient id="paint4_linear_1_2" x1="-411.437" y1="178.729" x2="515.24" y2="178.729" gradientUnits="userSpaceOnUse">
<stop stop-color="#005EB5"/>
<stop offset="1" stop-color="#00C2FF"/>
</linearGradient>
<linearGradient id="paint5_linear_1_2" x1="51.9016" y1="-74.9986" x2="51.9016" y2="440.915" gradientUnits="userSpaceOnUse">
<stop stop-opacity="0"/>
<stop offset="1"/>
</linearGradient>
<linearGradient id="paint6_linear_1_2" x1="-411.437" y1="178.729" x2="515.24" y2="178.729" gradientUnits="userSpaceOnUse">
<stop stop-color="#005EB5"/>
<stop offset="1" stop-color="#00C2FF"/>
</linearGradient>
<linearGradient id="paint7_linear_1_2" x1="51.9016" y1="-74.9986" x2="51.9016" y2="440.915" gradientUnits="userSpaceOnUse">
<stop stop-opacity="0"/>
<stop offset="1"/>
</linearGradient>
<linearGradient id="paint8_linear_1_2" x1="-411.437" y1="178.729" x2="515.24" y2="178.729" gradientUnits="userSpaceOnUse">
<stop stop-color="#005EB5"/>
<stop offset="1" stop-color="#00C2FF"/>
</linearGradient>
<linearGradient id="paint9_linear_1_2" x1="51.9016" y1="-74.9986" x2="51.9016" y2="440.915" gradientUnits="userSpaceOnUse">
<stop stop-opacity="0"/>
<stop offset="1"/>
</linearGradient>
</defs>
</svg>
