<svg width="718" height="620" viewBox="0 0 718 620" fill="none" xmlns="http://www.w3.org/2000/svg">
<path d="M81.9924 43.8416L96.2352 34.5906C130.151 12.5741 169.577 0.933109 210.244 0.933109C240.912 0.933109 271.768 7.77825 299.477 20.7201L317.25 29.0307L192.22 154.057L81.9924 43.8416Z" fill="#20385D"/>
<path d="M61.952 359.404C-8.25478 289.126 -19.5628 178.021 35.0494 95.2292L44.3317 81.1589L192.221 229.06L359.294 61.987C398.923 22.5226 451.541 0.799988 507.481 0.799988C548.541 0.799988 588.299 12.6291 622.458 34.9943L636.607 44.257L191.696 489.14L61.952 359.404Z" fill="#2D7BF6"/>
<path d="M358.937 619.464C337.716 619.378 316.495 612.352 301.19 598.541L300.089 597.549L229.22 526.681L674.119 81.778L683.381 95.9267C737.531 178.609 726.031 289.42 656.04 359.404C656.04 359.404 420.135 595.39 418.991 596.531C403.561 611.968 381.247 619.554 358.937 619.464Z" fill="#20385D"/>
</svg>
