<svg width="24" height="24" viewBox="0 0 24 24" fill="none" xmlns="http://www.w3.org/2000/svg">
<g opacity="0.9" clip-path="url(#clip0_3517_10734)">
<path d="M12.3545 2.94877V4.48083C12.2359 4.47372 12.1174 4.47141 11.9988 4.47141C11.8802 4.47141 11.7616 4.47372 11.6431 4.48083V2.75197C11.885 2.80886 12.1222 2.87286 12.3545 2.94877Z" fill="#23262F"/>
<path d="M10.7827 4.57051C10.5479 4.60855 10.3155 4.65584 10.0878 4.71753L9.98823 4.25265L9.61597 2.50245C9.86485 2.50476 10.1091 2.51916 10.3511 2.5428L10.6832 4.10563L10.7827 4.57051Z" fill="#23262F"/>
<path d="M9.26491 4.9856C9.04207 5.0709 8.82634 5.1681 8.61541 5.2749L8.42331 4.84096L7.4751 2.71458C7.71215 2.66234 7.954 2.61969 8.19568 2.58646L9.0705 4.55184L9.26491 4.9856Z" fill="#23262F"/>
<path d="M7.86629 5.70837C7.66708 5.8388 7.47517 5.97865 7.29018 6.12561L7.01279 5.7416L5.34399 3.44445C5.56203 3.33783 5.78487 3.24063 6.01002 3.15515L7.58659 5.32666L7.86629 5.70837Z" fill="#23262F"/>
<path d="M6.64806 6.70388C6.48209 6.87217 6.32322 7.04756 6.17164 7.23254L5.82068 6.91481L3.37427 4.71256C3.55908 4.5608 3.75117 4.41153 3.94558 4.27168L6.29728 6.38864L6.64806 6.70388Z" fill="#23262F"/>
<path d="M5.6636 7.93153C5.53565 8.13073 5.41464 8.33686 5.30571 8.54797L4.89557 8.31092L1.40356 6.29579L1.75914 5.67952L5.25347 7.69447L5.6636 7.93153Z" fill="#23262F"/>
<path d="M4.95464 9.33707C4.86934 9.5576 4.79577 9.78275 4.73411 10.0127L4.28133 9.86574L0.450439 8.62112L0.668479 7.9455L4.50185 9.19012L4.95464 9.33707Z" fill="#23262F"/>
<path d="M4.55396 10.8613C4.5161 11.0936 4.49229 11.3283 4.47808 11.5679L4.00628 11.5179L0 11.0961L0.0735687 10.3895L4.07985 10.8116L4.55396 10.8613Z" fill="#23262F"/>
<path d="M4.55396 13.1419L4.07985 13.1917L0.0735687 13.6112L0 12.9048L4.00628 12.4828L4.47808 12.433C4.49229 12.6726 4.5161 12.9096 4.55396 13.1419Z" fill="#23262F"/>
<path d="M4.95215 14.664L4.50168 14.8109L0.668479 16.0555L0.450439 15.3799L4.28133 14.1353L4.73162 13.9883C4.79577 14.2183 4.86916 14.4434 4.95215 14.664Z" fill="#23262F"/>
<path d="M5.66111 16.0692L5.25329 16.3062L1.75915 18.3212L1.40356 17.7049L4.8954 15.6899L5.30553 15.4527C5.41464 15.6638 5.53317 15.87 5.66111 16.0692Z" fill="#23262F"/>
<path d="M6.64795 17.2985L6.29717 17.6137L3.94777 19.7284C3.75337 19.5885 3.56145 19.4416 3.37646 19.2875L5.82057 17.0876L6.17153 16.7698C6.32311 16.9548 6.48197 17.1302 6.64795 17.2985Z" fill="#23262F"/>
<path d="M7.86629 18.2939L7.58659 18.6779L6.01251 20.8446H6.01002C5.78487 20.7593 5.56203 20.6621 5.34399 20.5555L7.01279 18.2606L7.29018 17.8766C7.47517 18.0236 7.66708 18.1634 7.86629 18.2939Z" fill="#23262F"/>
<path d="M9.26491 19.0175L9.0705 19.4538L8.19816 21.4142C7.954 21.381 7.71446 21.3383 7.4751 21.2862L8.421 19.1622L8.61541 18.7282C8.82634 18.835 9.04207 18.9322 9.26491 19.0175Z" fill="#23262F"/>
<path d="M10.7831 19.431L10.6835 19.8958L10.3514 21.4563C10.1095 21.48 9.86523 21.4942 9.61865 21.4967L9.9886 19.7511L10.0882 19.2839C10.3159 19.3456 10.5482 19.3931 10.7831 19.431Z" fill="#23262F"/>
<path d="M12.3545 19.5211V21.0509C12.1222 21.1266 11.885 21.1908 11.6431 21.2477V19.5211C11.7616 19.5282 11.8802 19.5305 11.9988 19.5305C12.1174 19.5305 12.2359 19.5282 12.3545 19.5211Z" fill="#23262F"/>
<path d="M14.1203 20.2804C13.9068 20.4012 13.6887 20.5127 13.4657 20.6147L13.3139 19.8962L13.2144 19.4313C13.4492 19.3934 13.6815 19.346 13.9093 19.2843L14.0088 19.7515L14.1203 20.2804Z" fill="#23262F"/>
<path d="M15.6116 19.2398C15.4266 19.3987 15.2323 19.5505 15.0353 19.6927L14.9286 19.4508L14.7341 19.0168C14.9571 18.9315 15.1729 18.8343 15.3839 18.7251L15.5761 19.1616L15.6116 19.2398Z" fill="#23262F"/>
<path d="M16.8106 18.0189C16.6565 18.2063 16.4952 18.3889 16.3269 18.5643L16.1299 18.2941C16.3292 18.1636 16.5212 18.0237 16.7062 17.8767L16.8106 18.0189Z" fill="#23262F"/>
<path d="M16.8129 5.9809L16.7062 6.12561C16.5212 5.97859 16.3292 5.83868 16.1299 5.70819L16.3292 5.4378C16.4975 5.61326 16.6565 5.79353 16.8129 5.9809Z" fill="#23262F"/>
<path d="M15.6116 4.7594L15.5761 4.84242L15.3839 5.27637C15.1729 5.16739 14.9571 5.07015 14.7341 4.98464L14.9263 4.55069L15.0353 4.30642C15.2323 4.44864 15.4266 4.60046 15.6116 4.7594Z" fill="#23262F"/>
<path d="M14.1226 3.71914L14.0088 4.25282L13.9091 4.71753C13.6815 4.65584 13.449 4.60855 13.2144 4.57051L13.3139 4.10563L13.468 3.38475C13.691 3.48679 13.9091 3.60057 14.1226 3.71914Z" fill="#23262F"/>
<path d="M18.5314 12.2393C18.408 15.7407 15.5302 18.5404 11.998 18.5404C8.38515 18.5404 5.45752 15.6126 5.45752 11.9999C5.45752 8.38708 8.38515 5.45927 11.998 5.45927C15.5302 5.45927 18.408 8.25896 18.5314 11.7604C18.408 9.31166 16.3812 7.36299 13.9015 7.36299C11.3412 7.36299 9.2646 9.43961 9.2646 11.9999C9.2646 14.5626 11.3412 16.6367 13.9015 16.6367C16.3812 16.6367 18.408 14.6905 18.5314 12.2393Z" fill="#23262F"/>
<path d="M13.1318 8.98279C16.0979 8.54173 17.6742 12.3858 15.4615 14.3296C14.8189 14.9079 13.9246 15.1711 13.1318 15.0172C13.9215 14.8684 14.597 14.4823 15.0691 13.9373C16.6437 12.0983 15.4946 9.37267 13.1318 8.98279Z" fill="#23262F"/>
<path d="M23.9959 12C23.9959 18.6283 18.6217 24 11.9936 24C7.75488 24 4.02831 21.8025 1.89233 18.4859C3.72248 20.6196 6.43918 21.9731 9.46881 21.9731C14.9758 21.9731 19.4419 17.507 19.4419 12C19.4419 6.49303 14.9758 2.02686 9.46881 2.02686C6.43918 2.02686 3.72248 3.38041 1.89233 5.51408C4.02831 2.19746 7.75488 0 11.9936 0C18.6217 0 23.9959 5.37174 23.9959 12Z" fill="#23262F"/>
</g>
<defs>
<clipPath id="clip0_3517_10734">
<rect width="24" height="24" fill="white"/>
</clipPath>
</defs>
</svg>
