<svg width="215" height="174" viewBox="0 0 215 174" fill="none" xmlns="http://www.w3.org/2000/svg">
<mask id="path-1-inside-1_1_2" fill="white">
<path d="M172 111C199.614 111 222.95 87.5331 210.928 62.6734C210.134 61.0324 209.299 59.4089 208.423 57.8045C199.514 41.4892 186.651 27.6726 171.013 17.6222C155.375 7.57192 137.464 1.60985 118.922 0.283089C100.381 -1.04367 81.8031 2.30737 64.8936 10.0287C47.9841 17.7501 33.2846 29.5945 22.1437 44.4751C11.0029 59.3557 3.77767 76.7959 1.13091 95.1955C-1.51585 113.595 0.500682 132.365 6.99546 149.782C7.63414 151.495 8.31411 153.189 9.03444 154.864C19.9466 180.23 52.9639 177.965 71.0493 157.097L96.047 128.253C105.544 117.295 119.331 111 133.831 111H172Z"/>
</mask>
<path d="M172 111C199.614 111 222.95 87.5331 210.928 62.6734C210.134 61.0324 209.299 59.4089 208.423 57.8045C199.514 41.4892 186.651 27.6726 171.013 17.6222C155.375 7.57192 137.464 1.60985 118.922 0.283089C100.381 -1.04367 81.8031 2.30737 64.8936 10.0287C47.9841 17.7501 33.2846 29.5945 22.1437 44.4751C11.0029 59.3557 3.77767 76.7959 1.13091 95.1955C-1.51585 113.595 0.500682 132.365 6.99546 149.782C7.63414 151.495 8.31411 153.189 9.03444 154.864C19.9466 180.23 52.9639 177.965 71.0493 157.097L96.047 128.253C105.544 117.295 119.331 111 133.831 111H172Z" fill="#BE123C" stroke="#F93862" stroke-width="20" mask="url(#path-1-inside-1_1_2)"/>
</svg>
